<?xml version="1.0" encoding="UTF-8" standalone="no"?>
<svg
   class="img-fluid"
   id="outputsvg"
   width="2000"
   height="2000"
   viewBox="0 0 20000 20000"
   version="1.1"
   sodipodi:docname="logo.svg"
   inkscape:version="1.3.2 (091e20ef0f, 2023-11-25)"
   xmlns:inkscape="http://www.inkscape.org/namespaces/inkscape"
   xmlns:sodipodi="http://sodipodi.sourceforge.net/DTD/sodipodi-0.dtd"
   xmlns:xlink="http://www.w3.org/1999/xlink"
   xmlns="http://www.w3.org/2000/svg"
   xmlns:svg="http://www.w3.org/2000/svg">
  <defs
     id="defs2">
    <filter
       id="mask-powermask-path-effect8_inverse"
       inkscape:label="filtermask-powermask-path-effect8"
       style="color-interpolation-filters:sRGB"
       height="100"
       width="100"
       x="-50"
       y="-50">
      <feColorMatrix
         id="mask-powermask-path-effect8_primitive1"
         values="1"
         type="saturate"
         result="fbSourceGraphic" />
      <feColorMatrix
         id="mask-powermask-path-effect8_primitive2"
         values="-1 0 0 0 1 0 -1 0 0 1 0 0 -1 0 1 0 0 0 1 0 "
         in="fbSourceGraphic" />
    </filter>
  </defs>
  <sodipodi:namedview
     id="namedview2"
     pagecolor="#ffffff"
     bordercolor="#000000"
     borderopacity="0.25"
     inkscape:showpageshadow="2"
     inkscape:pageopacity="0.0"
     inkscape:pagecheckerboard="0"
     inkscape:deskcolor="#d1d1d1"
     inkscape:zoom="0.51385569"
     inkscape:cx="216.98699"
     inkscape:cy="857.24457"
     inkscape:window-width="2560"
     inkscape:window-height="1382"
     inkscape:window-x="0"
     inkscape:window-y="0"
     inkscape:window-maximized="1"
     inkscape:current-layer="layer1" />
  <g
     inkscape:groupmode="layer"
     id="layer1"
     inkscape:label="Layer 1">
    <rect
       style="fill:#ffffff;fill-opacity:1;stroke:#1b2f43;stroke-width:257.16;stroke-linecap:round;stroke-linejoin:bevel;stroke-dasharray:none;stroke-opacity:1"
       id="rect15"
       width="14903.021"
       height="14903.021"
       x="2500.5593"
       y="2844.3789"
       rx="2419.3218"
       ry="2419.3218" />
    <g
       id="g16">
      <g
         id="l409ddCvUFyusHxQ21MOzPL"
         fill="#1b2f43"
         style="display:inline"
         transform="translate(2934.9217,3285.957)">
        <g
           id="g2">
          <path
             id="p1HpbbMluA"
             d="m 2306,13288 c -10,-30 -56,-356 -56,-390 v -28 h -523 c -522,0 -523,0 -567,-22 -48,-25 -93,-81 -110,-138 -6,-21 -10,-200 -10,-454 v -419 l 31,-56 c 41,-73 101,-155 152,-208 l 41,-43 h 453 453 v -134 c 0,-73 3,-161 6,-195 l 7,-61 h -324 c -364,0 -365,0 -423,-73 l -31,-39 -9,-328 c -5,-180 -5,-349 -2,-374 5,-34 23,-66 73,-133 36,-48 82,-105 101,-125 l 36,-38 h 316 c 173,0 320,-4 326,-8 5,-4 20,-68 33,-142 12,-74 25,-145 28,-157 l 5,-23 h -215 c -119,0 -227,-4 -240,-9 -14,-5 -35,-25 -48,-43 l -24,-33 2,-319 c 3,-358 -5,-323 90,-423 l 59,-63 255,-1 c 140,-1 260,-2 268,-3 13,-1 30,-45 74,-194 l 16,-54 -132,4 c -125,3 -134,2 -165,-20 -56,-41 -57,-44 -60,-339 -4,-317 -7,-304 97,-414 l 66,-70 234,-1 c 221,-1 234,-2 252,-21 10,-12 19,-26 19,-32 0,-6 15,-46 34,-90 18,-44 36,-90 40,-102 l 7,-22 -113,6 -114,6 -37,-35 -37,-35 v -225 -225 l 73,-77 72,-78 253,-5 252,-6 33,-51 c 40,-61 89,-146 85,-146 -2,0 -53,-1 -115,-3 -76,-1 -116,-6 -125,-15 -9,-9 -14,-54 -16,-145 l -4,-132 75,-72 75,-73 h 219 220 l 62,-65 c 35,-36 61,-71 59,-78 -3,-8 -34,-14 -91,-17 -47,-3 -89,-9 -94,-13 -10,-10 -17,-188 -9,-220 3,-12 29,-38 57,-57 l 52,-35 h 203 203 l 35,-34 c 44,-42 45,-53 7,-49 -59,6 -96,-65 -70,-136 23,-64 126,-117 217,-112 64,3 217,-8 249,-18 19,-6 20,-9 7,-44 -18,-50 -17,-103 1,-129 8,-11 36,-33 62,-49 48,-28 43,-27 306,-44 4,0 7,-16 7,-35 0,-30 7,-40 49,-74 55,-43 101,-56 226,-66 89,-7 148,-29 185,-70 31,-33 51,-42 280,-121 102,-35 217,-75 255,-89 81,-31 113,-40 370,-107 289,-75 668,-152 870,-177 39,-5 117,-16 175,-24 246,-36 566,-67 985,-97 331,-24 463,-31 495,-28 l 35,3 -38,41 c -35,40 -40,41 -114,48 -128,11 -281,35 -403,63 -63,14 -151,33 -195,43 -74,16 -161,42 -415,123 -305,97 -605,299 -771,520 -123,164 -197,353 -241,617 -15,96 -15,485 1,605 51,386 183,847 343,1193 21,46 38,87 38,90 0,4 6,19 14,33 21,41 25,71 16,114 -12,58 -38,181 -51,245 -15,75 -35,169 -58,270 -10,47 -31,141 -46,210 -15,69 -32,141 -36,162 l -9,36 -1493,2 c -820,0 -1501,3 -1513,6 -18,5 -22,15 -28,72 -3,37 -6,88 -6,115 v 47 h 1690 1689 l 54,-24 c 76,-33 290,-154 516,-291 106,-64 194,-115 196,-113 5,6 94,165 185,333 51,94 124,224 162,290 240,413 394,677 420,720 46,75 176,286 253,410 38,61 116,189 175,285 160,262 200,326 265,428 167,262 202,317 229,360 16,26 48,76 71,112 73,111 196,301 255,395 86,137 235,371 355,560 199,313 493,782 592,945 18,30 33,61 33,69 0,12 -33,13 -212,8 -116,-4 -392,-7 -612,-7 l -401,-1 -138,-209 -137,-210 H 6824 4088 l 7,28 c 7,26 13,56 56,257 11,50 22,102 25,117 l 6,27 -442,-5 c -244,-3 -446,-7 -450,-9 -4,-3 -10,-15 -13,-27 -2,-13 -12,-50 -21,-83 -67,-245 -165,-811 -225,-1310 -76,-620 -79,-1782 -6,-2365 55,-442 108,-793 145,-960 103,-469 237,-919 378,-1265 135,-335 129,-321 222,-506 77,-153 192,-348 287,-483 172,-247 437,-550 606,-694 49,-42 113,-97 141,-122 49,-44 84,-71 221,-171 147,-107 257,-183 327,-224 18,-11 52,-31 74,-45 97,-59 284,-161 354,-193 216,-100 322,-147 385,-170 151,-56 405,-136 495,-157 52,-12 131,-35 175,-50 44,-15 104,-33 133,-40 29,-7 51,-14 48,-17 -5,-6 -307,56 -472,96 -142,35 -581,179 -750,246 -343,136 -732,355 -1012,569 -297,227 -338,262 -542,466 -288,288 -486,536 -666,837 -125,210 -230,399 -272,493 -16,36 -42,92 -57,125 -82,179 -222,552 -307,814 -33,102 -64,195 -68,206 -30,76 -151,571 -199,815 -42,214 -48,247 -70,390 -109,709 -148,1273 -138,1995 8,571 51,1085 137,1630 10,66 21,141 24,168 l 6,47 h -161 c -119,0 -161,-3 -163,-12 z m 6894,-769 c 0,-6 -19,-34 -41,-64 l -41,-55 H 6599 4080 v 39 c 0,22 4,50 9,63 l 9,24 2551,1 c 1623,1 2551,-2 2551,-8 z M 3546,11368 c -4,-90 -9,-187 -13,-217 l -6,-53 -56,-26 c -63,-29 -148,-40 -180,-23 -20,11 -21,18 -20,179 1,92 4,194 8,227 l 6,60 95,6 c 52,3 112,6 134,7 l 39,2 z m 5064,152 c 0,-6 -36,-72 -79,-148 -43,-75 -90,-159 -102,-185 l -24,-49 -2264,1 c -1246,1 -2266,3 -2267,4 -7,7 30,364 38,375 13,16 4698,18 4698,2 z m 709,-5 c 2,-2 -27,-57 -64,-122 -38,-65 -84,-147 -104,-182 -20,-36 -52,-82 -72,-103 -34,-36 -39,-38 -98,-38 -34,0 -72,5 -84,11 -38,20 -87,72 -87,93 0,41 118,280 166,336 10,12 40,14 176,12 89,-2 165,-5 167,-7 z m -1513,-628 422,-2 -36,-62 c -20,-34 -41,-64 -46,-65 -6,-2 -959,-2 -2118,0 l -2108,2 v 63 c 0,35 2,66 4,68 4,4 3064,1 3882,-4 z m -4285,-859 c 4,-23 28,-295 29,-326 0,-43 -1,-43 -55,-68 -30,-14 -79,-28 -109,-31 -49,-5 -55,-4 -67,18 -12,24 -37,231 -38,321 l -1,47 48,6 c 26,4 76,13 112,20 73,15 80,16 81,13 z m 4244,-8 c 3,-6 -19,-61 -51,-123 -31,-61 -62,-130 -69,-152 l -12,-40 H 5744 3855 l -3,163 -2,162 h 1954 c 1306,0 1957,-3 1961,-10 z m 518,-12 c 76,-10 97,-16 97,-28 0,-17 -51,-120 -137,-273 -59,-106 -73,-117 -148,-117 -80,0 -145,41 -145,91 0,28 130,300 158,332 12,13 25,17 47,13 16,-3 74,-11 128,-18 z m -845,-555 c -11,-27 -25,-54 -30,-60 -8,-10 -370,-13 -1748,-13 H 3923 l -7,50 c -4,28 -4,55 -1,60 4,6 646,10 1775,10 H 7459 Z M 3625,8771 c 3,-6 18,-74 34,-153 33,-162 33,-163 -43,-197 -66,-29 -102,-33 -118,-13 -19,22 -71,235 -73,296 0,6 41,24 90,42 107,37 102,36 110,25 z m 3225,-406 c 0,-41 -27,-95 -47,-95 -108,-3 -2778,2 -2780,4 -2,2 -6,26 -10,55 l -6,51 1409,3 c 775,1 1415,3 1422,5 7,1 12,-8 12,-23 z m -220,-660 c 0,-29 -71,-239 -84,-247 -6,-4 -546,-7 -1201,-5 l -1189,2 -8,40 c -5,22 -18,79 -29,128 -11,48 -18,91 -15,95 2,4 572,7 1265,7 1254,0 1261,0 1261,-20 z m -2780,-5 c 25,-49 70,-225 61,-237 -13,-19 -62,-43 -98,-49 l -38,-6 -27,60 c -34,77 -73,200 -66,207 8,9 131,43 147,41 8,0 17,-8 21,-16 z m 3113,3 c 40,-5 47,-9 47,-27 0,-12 -4,-26 -9,-31 -5,-6 -28,-57 -51,-115 -24,-58 -44,-107 -46,-109 -4,-4 -134,29 -134,34 0,5 69,206 82,238 9,24 15,28 37,22 14,-3 47,-8 74,-12 z m -501,-463 c -2,-19 -9,-41 -14,-47 -8,-10 -239,-13 -1094,-13 H 4270 l -4,23 c -3,12 -7,34 -9,50 l -4,27 1106,-2 1106,-3 z M 4228,6691 c 40,-78 48,-102 38,-110 -15,-12 -87,-44 -91,-39 -22,27 -112,195 -108,201 6,11 83,46 99,47 6,0 34,-45 62,-99 z m 2177,73 c 0,-5 -4,-59 -9,-121 l -8,-111 -91,-7 c -51,-4 -470,-5 -933,-3 -650,2 -844,6 -856,15 -8,7 -21,32 -28,55 -7,24 -27,73 -46,110 l -34,67 53,3 c 124,7 1952,-1 1952,-8 z m 289,0 c 16,-15 16,-24 -5,-104 -5,-19 -9,-50 -9,-67 v -33 h -60 -60 v 40 c 0,22 5,71 12,110 l 12,70 h 47 c 30,0 53,-6 63,-16 z m -354,-434 v -41 l -850,3 c -549,2 -852,7 -859,13 -5,6 -13,22 -16,38 l -7,27 h 866 866 z M 4713,5924 c 29,-31 60,-69 70,-85 18,-27 18,-28 -3,-39 -12,-7 -32,-9 -44,-6 -23,6 -146,136 -146,155 0,13 30,30 53,31 10,0 42,-25 70,-56 z m 1891,19 c 3,-21 6,-59 6,-85 0,-48 0,-48 -34,-48 -30,0 -34,4 -40,31 -3,17 -6,56 -6,85 v 54 h 34 c 31,0 34,-3 40,-37 z m -217,-68 c 7,-44 11,-85 9,-91 -5,-13 -1267,-20 -1344,-8 -33,5 -46,14 -63,40 -11,18 -38,55 -60,81 -21,26 -39,51 -39,55 0,5 334,7 742,6 l 743,-3 z m 41,-257 c 7,-7 12,-20 12,-29 0,-15 -28,-17 -312,-21 -435,-6 -862,5 -882,21 -25,21 -19,29 22,34 20,2 287,4 592,5 421,2 559,-1 568,-10 z m -1277,-50 c 43,-48 47,-58 21,-58 -19,0 -102,72 -102,89 0,26 45,8 81,-31 z m 1394,-302 c 16,-30 27,-56 25,-58 -3,-2 -201,-1 -440,2 l -435,5 -45,27 c -25,14 -56,38 -69,52 l -24,26 h 479 480 z m -1082,12 c 38,-20 87,-63 87,-75 0,-19 -51,-15 -85,6 -16,10 -46,33 -65,50 -28,24 -32,32 -21,40 14,9 40,3 84,-21 z m 1248,-3 c 24,-42 23,-55 -5,-55 -29,0 -56,33 -56,68 0,34 39,26 61,-13 z m -63,-197 c 3,-13 -9,-18 -65,-24 -75,-8 -682,3 -708,12 -11,5 -13,10 -5,19 8,9 100,12 392,11 349,-1 383,-2 386,-18 z m 158,4 c 15,-10 34,-47 34,-67 0,-12 -6,-15 -22,-10 -31,10 -82,60 -74,74 8,12 45,14 62,3 z m -967,-36 c 50,-32 52,-46 6,-46 -41,0 -115,43 -115,66 0,24 56,13 109,-20 z m 270,-206 c 32,-17 64,-37 71,-45 11,-13 5,-13 -36,1 -85,29 -93,33 -104,54 -15,28 -2,26 69,-10 z m 879,-9 c 19,-13 30,-27 25,-31 -4,-5 -176,-5 -382,-1 -347,7 -375,9 -388,26 -7,11 -13,22 -13,26 0,4 163,6 363,6 l 362,-2 z m 235,-165 c 9,-5 17,-17 17,-28 0,-17 -4,-19 -27,-13 -16,4 -137,9 -270,10 -228,3 -304,8 -328,23 -26,17 570,25 608,8 z m 255,-142 c 13,-2 20,-9 17,-14 -7,-11 -296,-14 -357,-4 -74,13 -36,23 90,26 129,3 209,0 250,-8 z m 330,-116 c 76,-23 7,-36 -115,-22 -51,6 -71,25 -40,38 16,7 114,-3 155,-16 z" />
          <path
             id="ps813T9Xu"
             d="m 11828,13266 c -13,-18 -71,-103 -129,-187 -104,-150 -190,-277 -465,-684 -166,-246 -382,-560 -466,-679 -82,-116 -192,-275 -277,-401 -62,-92 -105,-153 -156,-225 -11,-15 -69,-99 -128,-187 -60,-87 -149,-216 -199,-288 -49,-71 -144,-211 -210,-310 -66,-99 -133,-196 -148,-215 -15,-19 -78,-111 -140,-205 -62,-93 -122,-183 -134,-200 -22,-32 -517,-778 -571,-860 -36,-56 -151,-234 -200,-310 -18,-27 -53,-82 -78,-121 -25,-39 -63,-102 -83,-139 l -38,-69 27,-20 c 66,-50 524,-326 540,-326 15,0 70,55 86,87 7,14 11,107 11,272 0,325 -8,347 -121,361 l -47,5 69,104 c 38,58 76,112 84,120 14,14 65,16 395,16 h 379 l 66,65 c 103,102 101,94 97,448 l -3,302 -38,40 -38,40 h -117 -118 l 28,48 c 30,53 141,212 178,256 l 24,29 448,-5 449,-5 45,47 c 68,71 163,181 188,217 23,32 23,33 20,397 -3,408 2,380 -81,433 -35,22 -47,24 -160,23 -80,-1 -121,2 -120,9 6,25 198,296 251,354 l 26,27 h 481 481 l 150,153 c 83,83 158,169 167,189 16,34 17,76 15,446 l -3,410 -38,55 c -54,78 -82,89 -220,87 -62,-1 -116,-1 -120,-1 -11,1 5,29 108,186 124,190 145,223 145,235 0,6 -53,10 -145,10 h -145 z" />
          <path
             id="pV5orcNoG"
             d="m 7250,8534 c 0,-16 80,-407 95,-464 18,-68 76,-325 110,-485 43,-200 66,-301 116,-505 26,-107 71,-289 99,-405 28,-115 60,-244 71,-285 10,-41 32,-129 48,-195 16,-66 41,-163 54,-215 14,-52 31,-123 37,-157 12,-60 13,-62 76,-102 66,-43 155,-127 208,-197 17,-23 78,-103 136,-178 58,-76 112,-147 120,-159 16,-23 235,-317 375,-503 44,-59 103,-137 130,-174 28,-37 70,-94 94,-126 24,-32 57,-77 73,-99 16,-22 118,-160 226,-306 108,-147 244,-331 302,-410 58,-79 148,-201 200,-271 118,-158 236,-318 345,-468 144,-197 169,-231 272,-370 54,-74 112,-154 128,-176 17,-23 55,-75 86,-115 31,-41 69,-92 85,-115 83,-117 160,-214 171,-214 6,0 29,15 52,33 22,17 58,45 78,60 21,16 70,52 108,82 39,30 137,103 219,162 81,59 165,120 185,135 20,15 52,39 71,53 19,14 55,41 80,60 25,19 61,46 81,59 21,14 61,45 90,68 57,47 272,208 327,245 37,26 39,27 109,85 28,24 79,63 112,86 34,24 61,48 61,54 0,14 -56,95 -157,228 -98,129 -133,176 -220,298 -51,70 -150,206 -220,300 -71,95 -166,225 -213,289 -102,140 -289,394 -325,443 -25,34 -81,111 -178,248 -107,151 -157,218 -253,344 -56,73 -124,165 -150,204 -27,39 -71,101 -99,138 -93,125 -200,271 -218,296 -10,14 -30,41 -45,61 -15,20 -75,104 -134,185 -59,82 -150,208 -202,279 -52,72 -129,177 -170,235 -42,58 -106,146 -142,195 -66,89 -154,253 -154,286 0,17 -17,35 -51,54 -29,16 -205,130 -519,335 -386,253 -554,360 -755,482 -93,56 -184,111 -202,123 -34,21 -75,46 -183,110 -36,21 -88,53 -117,71 -28,19 -54,34 -57,34 -6,0 -16,6 -151,92 -38,24 -115,70 -170,101 -55,32 -110,65 -122,74 -13,8 -23,12 -23,7 z m 1072,-944 c 26,-20 439,-296 493,-329 17,-10 102,-65 190,-121 190,-122 311,-195 343,-204 12,-4 22,-11 22,-14 0,-4 -20,-30 -44,-57 l -44,-50 h -191 c -105,0 -191,-2 -191,-5 -6,-129 -22,-247 -38,-283 -24,-54 -83,-116 -137,-142 -64,-32 -191,-28 -275,9 -94,40 -100,41 -100,20 0,-32 -60,-255 -83,-308 -25,-61 -81,-142 -103,-150 -27,-10 -34,-7 -45,21 -11,29 -130,493 -186,723 -19,80 -51,208 -70,285 -70,276 -73,297 -42,312 31,14 200,132 342,240 23,18 53,41 67,52 32,26 61,26 92,1 z m 872,-1273 c 23,-23 57,-65 76,-94 64,-94 182,-255 370,-508 102,-137 215,-290 250,-340 35,-49 125,-171 199,-270 74,-99 147,-198 163,-220 16,-22 55,-75 86,-117 31,-43 68,-94 82,-113 14,-20 47,-63 74,-98 27,-34 59,-78 72,-97 13,-19 45,-63 71,-98 27,-34 84,-112 128,-173 44,-60 154,-210 245,-333 214,-289 370,-503 392,-535 10,-14 47,-64 82,-111 36,-47 108,-144 160,-217 53,-73 114,-156 136,-185 22,-29 40,-64 40,-77 0,-31 -46,-80 -68,-74 -9,2 -48,47 -87,99 -38,52 -85,113 -103,137 -18,23 -58,77 -90,121 -31,43 -68,94 -82,112 -14,18 -47,64 -75,101 -27,37 -94,129 -150,203 -55,74 -107,144 -115,156 -8,12 -35,48 -60,80 -62,81 -75,99 -154,211 -38,54 -101,141 -140,193 -39,52 -80,107 -91,122 -11,15 -67,91 -125,169 -119,160 -247,332 -273,369 -9,14 -32,44 -50,67 -17,23 -52,70 -77,103 -25,34 -88,119 -140,189 -52,70 -129,173 -170,230 -41,56 -100,135 -130,174 -30,40 -80,108 -110,152 -30,44 -77,110 -105,146 -27,37 -83,111 -123,165 -40,55 -93,124 -117,154 -67,82 -125,171 -125,191 0,22 46,59 73,59 11,0 39,-19 61,-43 z m -550,-370 c 22,-24 74,-88 114,-142 40,-55 94,-128 120,-163 26,-34 83,-112 127,-173 123,-169 173,-237 239,-324 34,-44 102,-136 151,-205 49,-69 114,-157 145,-197 30,-40 93,-124 140,-188 47,-64 101,-137 121,-163 20,-26 51,-67 68,-92 17,-25 43,-61 56,-80 14,-19 40,-54 58,-77 33,-42 133,-178 175,-236 13,-18 32,-41 43,-53 10,-11 19,-24 19,-28 0,-5 12,-23 28,-41 15,-17 54,-70 87,-116 33,-46 126,-172 206,-279 185,-247 276,-372 320,-435 19,-27 55,-77 79,-109 25,-33 65,-87 90,-122 25,-35 68,-93 95,-129 156,-205 165,-219 165,-251 0,-23 -7,-38 -22,-48 -53,-37 -72,-22 -213,174 -44,61 -96,132 -115,158 -19,26 -55,76 -80,110 -69,96 -166,227 -261,353 -47,63 -139,188 -204,279 -65,91 -121,167 -124,170 -7,6 -59,74 -84,110 -9,14 -32,44 -50,67 -34,45 -72,97 -204,276 -45,62 -105,141 -132,177 -54,70 -87,115 -124,170 -14,19 -44,60 -68,90 -45,57 -102,135 -166,230 -21,30 -65,89 -98,130 -33,41 -68,86 -78,100 -67,95 -268,370 -377,515 -25,33 -52,69 -60,81 -8,12 -35,48 -60,80 -25,33 -56,75 -69,94 -13,19 -26,37 -30,40 -10,8 -96,124 -137,184 -29,44 -27,77 8,94 40,19 60,13 102,-31 z" />
          <path
             id="p001HKfEY"
             d="m 7227,7018 c -61,-124 -81,-171 -104,-238 -8,-25 -25,-72 -38,-105 -31,-83 -59,-176 -100,-340 -85,-337 -103,-680 -48,-920 20,-90 78,-246 113,-305 60,-102 229,-289 310,-343 14,-9 54,-37 90,-61 67,-45 207,-118 295,-155 157,-65 428,-156 550,-185 144,-34 535,-106 535,-99 0,15 -34,65 -58,84 -15,13 -47,50 -70,81 -46,62 -48,63 -175,71 -38,3 -73,9 -78,14 -5,5 -12,39 -16,75 l -6,65 -60,7 c -33,3 -95,6 -137,6 -43,0 -91,3 -108,6 -31,6 -31,7 -34,78 l -3,71 -132,3 -133,3 -1,67 c -1,37 -1,75 0,84 2,16 -12,18 -131,20 l -133,3 v 115 115 l -112,5 c -62,3 -115,9 -119,12 -12,13 8,89 32,117 30,35 32,93 6,119 -15,15 -42,20 -147,25 -71,4 -133,11 -139,17 -5,5 -11,33 -14,63 l -4,54 145,6 c 80,3 155,10 166,16 32,17 44,73 39,186 -2,57 -7,107 -11,111 -4,4 -74,9 -157,12 -82,3 -150,7 -150,11 0,3 8,39 17,78 l 18,73 h 125 c 141,1 141,1 199,82 27,37 32,53 27,75 -13,53 -34,168 -41,215 -8,60 -27,71 -110,66 l -62,-4 8,26 c 4,14 13,45 20,70 7,25 25,61 39,80 15,19 30,40 33,46 4,7 -9,73 -28,148 -19,75 -35,148 -35,161 0,46 -17,25 -73,-87 z m -21,-1742 c 15,-63 -21,-79 -63,-28 -33,40 -29,52 17,52 34,0 41,-4 46,-24 z m 229,-241 c 0,-27 -3,-30 -37,-33 -29,-3 -43,2 -63,22 -39,39 -32,47 38,44 62,-3 62,-3 62,-33 z m 234,-181 c 34,-7 42,-33 17,-53 -32,-27 -146,12 -146,49 0,11 80,13 129,4 z m 295,-164 c 16,-6 26,-17 26,-30 0,-17 -6,-20 -50,-20 -56,0 -110,22 -110,45 0,11 13,15 54,15 30,0 66,-4 80,-10 z m 333,-156 c 36,-5 52,-22 33,-34 -21,-13 -121,2 -157,23 -18,10 -33,21 -33,23 0,4 103,-4 157,-12 z" />
          <path
             id="pCv12IOgt"
             d="m 12585,2849 c -4,-5 -26,-25 -49,-42 -43,-32 -201,-152 -389,-297 -55,-41 -109,-82 -120,-90 -29,-19 -153,-112 -422,-314 -121,-90 -251,-188 -290,-216 -202,-148 -281,-208 -293,-223 -12,-14 -6,-25 40,-84 30,-37 75,-97 101,-133 26,-36 70,-94 97,-130 28,-35 50,-68 50,-72 0,-21 40,-4 93,40 98,79 243,188 342,257 31,22 74,54 95,70 39,30 99,75 264,197 50,37 107,80 126,96 19,15 60,45 90,65 30,21 71,50 91,65 57,42 228,174 273,209 23,18 70,53 106,78 36,25 85,63 109,84 41,36 42,39 22,46 -11,3 -21,10 -21,14 0,7 -78,113 -251,339 -40,53 -52,61 -64,41 z m -356,-524 c 17,-20 31,-46 31,-58 0,-30 -75,-101 -224,-213 -65,-49 -137,-104 -160,-121 -22,-18 -57,-44 -76,-57 -19,-13 -44,-33 -54,-45 -26,-28 -105,-78 -138,-86 -21,-5 -33,-1 -52,19 -36,35 -33,68 10,116 37,41 65,62 187,145 37,25 91,65 120,89 29,23 59,47 68,52 9,5 34,24 55,42 22,18 66,54 99,80 33,26 64,53 68,60 13,21 34,14 66,-23 z" />
          <path
             id="pRdC0Me4Z"
             d="m 13005,2230 c -3,-6 -36,-30 -73,-55 -104,-70 -176,-122 -326,-235 -76,-58 -151,-114 -166,-125 -15,-11 -54,-40 -86,-65 -32,-25 -68,-52 -80,-60 -12,-8 -50,-35 -85,-59 -35,-24 -79,-56 -96,-70 -76,-61 -207,-161 -259,-197 -23,-16 -83,-61 -135,-101 -52,-40 -121,-93 -153,-118 -33,-25 -63,-45 -68,-45 -54,0 139,-231 245,-294 136,-79 326,-107 483,-70 98,22 149,52 335,194 26,19 111,84 190,144 257,196 313,243 365,313 63,83 87,134 109,237 38,172 -8,362 -129,534 -18,26 -36,55 -39,65 -7,19 -22,22 -32,7 z m -71,-342 c 38,-58 52,-171 31,-252 -29,-110 -74,-158 -316,-330 -86,-61 -180,-130 -210,-153 -196,-153 -223,-171 -279,-188 -114,-34 -241,-4 -336,79 l -39,35 56,53 c 31,29 76,67 99,83 23,17 58,44 78,61 20,17 75,57 122,89 47,32 101,72 121,89 21,17 69,54 109,81 39,28 94,68 120,90 63,51 199,157 270,210 22,17 59,45 81,63 23,17 46,32 53,32 7,0 25,-19 40,-42 z" />
        </g>
      </g>
      <g
         id="g15"
         transform="translate(1940.2369,5122.922)">
        <rect
           style="fill:#1b2f43;fill-opacity:1;stroke:none;stroke-width:3.81262;stroke-linecap:round;stroke-linejoin:bevel"
           id="rect2"
           width="1827.1729"
           height="2556.6885"
           x="1810.9824"
           y="1330.3124"
           rx="318.82919"
           ry="311.39816" />
        <rect
           style="fill:#1b2f43;fill-opacity:1;stroke:none;stroke-width:3.88654;stroke-linecap:round;stroke-linejoin:bevel"
           id="rect3"
           width="343.1904"
           height="2939.1057"
           x="2576.3713"
           y="3679.1289" />
        <g
           id="g4"
           style="fill:#fefbfb;fill-opacity:1">
          <circle
             style="fill:#fefbfb;fill-opacity:1;stroke:none;stroke-width:5.81665;stroke-linecap:round;stroke-linejoin:bevel"
             id="path3"
             r="320.47629"
             cy="2066.1624"
             cx="2724.5688" />
          <use
             x="0"
             y="0"
             xlink:href="#path3"
             id="use3"
             transform="translate(-458.9,948.18128)"
             style="fill:#fefbfb;fill-opacity:1" />
          <use
             x="0"
             y="0"
             xlink:href="#use3"
             id="use4"
             transform="translate(917.8,9.6847925)"
             style="fill:#fefbfb;fill-opacity:1" />
        </g>
      </g>
      <use
         x="0"
         y="0"
         xlink:href="#g15"
         id="use15"
         transform="matrix(0.35350608,0,0,0.35350608,6936.0534,3680.6051)" />
    </g>
  </g>
</svg>
