<?xml version="1.0" encoding="UTF-8" standalone="no"?>
<svg
   width="16"
   height="16"
   fill="currentColor"
   class="bi bi-train-front"
   viewBox="0 0 16 16"
   version="1.1"
   id="svg1"
   sodipodi:docname="train-front.svg"
   inkscape:version="1.3.2 (091e20ef0f, 2023-11-25)"
   xmlns:inkscape="http://www.inkscape.org/namespaces/inkscape"
   xmlns:sodipodi="http://sodipodi.sourceforge.net/DTD/sodipodi-0.dtd"
   xmlns:xlink="http://www.w3.org/1999/xlink"
   xmlns="http://www.w3.org/2000/svg"
   xmlns:svg="http://www.w3.org/2000/svg">
  <defs
     id="defs1">
    <inkscape:path-effect
       effect="powerclip"
       id="path-effect5"
       is_visible="true"
       lpeversion="1"
       inverse="true"
       flatten="false"
       hide_clip="false"
       message="Use fill-rule evenodd on &lt;b&gt;fill and stroke&lt;/b&gt; dialog if no flatten result after convert clip to paths." />
    <clipPath
       clipPathUnits="userSpaceOnUse"
       id="clipPath4">
      <rect
         style="display:none;fill:#000000;fill-opacity:1;stroke-width:0.174358;stroke-linejoin:round;stroke-miterlimit:1.5;-inkscape-stroke:none"
         id="rect5"
         width="0.75843757"
         height="5.1619997"
         x="7.6693063"
         y="3.7299793"
         d="M 7.6693063,3.7299793 H 8.4277439 V 8.891979 H 7.6693063 Z" />
      <path
         id="lpe_path-effect5"
         style="fill:#000000;fill-opacity:1;stroke-width:0.174358;stroke-linejoin:round;stroke-miterlimit:1.5;-inkscape-stroke:none"
         class="powerclip"
         d="M -2.0924761,-0.87109756 H 18.11622 V 13.327337 H -2.0924761 Z M 7.6693063,3.7299793 V 8.891979 H 8.4277439 V 3.7299793 Z" />
    </clipPath>
  </defs>
  <sodipodi:namedview
     id="namedview1"
     pagecolor="#ffffff"
     bordercolor="#000000"
     borderopacity="0.25"
     inkscape:showpageshadow="2"
     inkscape:pageopacity="0.0"
     inkscape:pagecheckerboard="0"
     inkscape:deskcolor="#d1d1d1"
     inkscape:zoom="56.49213"
     inkscape:cx="2.6109832"
     inkscape:cy="6.0981946"
     inkscape:window-width="2560"
     inkscape:window-height="1382"
     inkscape:window-x="0"
     inkscape:window-y="0"
     inkscape:window-maximized="1"
     inkscape:current-layer="svg1" />
  <path
     d="m 5.621,1.485 c 1.815,-0.454 2.943,-0.454 4.758,0 0.784,0.196 1.743,0.673 2.527,1.119 C 13.594,2.994 14,3.752 14,4.583 v 8.0396 c 0,0.828427 -0.671573,1.5 -1.5,1.5 h -9 c -0.8284271,0 -1.5,-0.671573 -1.5,-1.5 V 4.583 C 2,3.752 2.406,2.995 3.094,2.603 3.878,2.158 4.838,1.681 5.621,1.485 m 5,-0.97 C 8.647,0.02 7.353,0.02 5.38,0.515 4.456,0.745 3.398,1.281 2.6,1.735 1.566,2.322 1,3.432 1,4.582 v 8.0406 c 0,1.380712 1.1192881,2.5 2.5,2.5 h 9 c 1.380712,0 2.5,-1.119288 2.5,-2.5 V 4.583 C 15,3.433 14.435,2.323 13.4,1.734 12.603,1.281 11.545,0.746 10.621,0.514 Z"
     id="path1"
     sodipodi:nodetypes="cccsssssscccccssssssccc"
     style="fill:#ffffff;fill-opacity:1" />
  <circle
     style="fill:#ffffff;stroke-width:0.174358;stroke-linejoin:round;stroke-miterlimit:1.5;-inkscape-stroke:none;fill-opacity:1"
     id="path2"
     cx="8.0439558"
     cy="2.5898452"
     r="0.72389531" />
  <use
     x="0"
     y="0"
     xlink:href="#path2"
     id="use2"
     transform="translate(3.7602279,9.6887037)"
     style="fill:#ffffff;fill-opacity:1" />
  <use
     x="0"
     y="0"
     xlink:href="#use2"
     id="use3"
     transform="translate(-7.5204559,-0.16662876)"
     style="fill:#ffffff;fill-opacity:1" />
  <path
     style="fill:#ffffff;fill-opacity:1;stroke-width:0.174358;stroke-linejoin:round;stroke-miterlimit:1.5;-inkscape-stroke:none"
     id="rect3"
     width="10.208696"
     height="4.1984344"
     x="2.9075239"
     y="4.1289024"
     rx="0.5"
     clip-path="url(#clipPath4)"
     inkscape:path-effect="#path-effect5"
     sodipodi:type="rect"
     d="M 3.4075239,4.1289024 H 12.61622 c 0.277,0 0.5,0.223 0.5,0.5 v 3.1984344 c 0,0.277 -0.223,0.5 -0.5,0.5 H 3.4075239 c -0.277,0 -0.5,-0.223 -0.5,-0.5 V 4.6289024 c 0,-0.277 0.223,-0.5 0.5,-0.5 z" />
</svg>
