<?xml version="1.0" encoding="UTF-8" standalone="no"?>
<svg
   viewBox="0 0 830.88873 2422.4189"
   height="2422.4189"
   width="830.88873"
   xml:space="preserve"
   version="1.1"
   id="svg11078"
   xmlns="http://www.w3.org/2000/svg"
   xmlns:svg="http://www.w3.org/2000/svg"
   xmlns:rdf="http://www.w3.org/1999/02/22-rdf-syntax-ns#"
   xmlns:cc="http://creativecommons.org/ns#"
   xmlns:dc="http://purl.org/dc/elements/1.1/"><metadata
     id="metadata11084"><rdf:RDF><cc:Work
         rdf:about=""><dc:format>image/svg+xml</dc:format><dc:type
           rdf:resource="http://purl.org/dc/dcmitype/StillImage" /></cc:Work></rdf:RDF></metadata><defs
     id="defs11082" /><g
     transform="matrix(1.25,0,0,-1.25,-122.1975,1280.0095)"
     id="g11086"><rect
       style="fill:#8b8c92;stroke-width:0.232;stroke-linecap:round;paint-order:fill markers stroke"
       id="rect1"
       width="71.331505"
       height="1437.6031"
       x="345.56747"
       y="-572.47601"
       transform="scale(1,-1)" /><g
       id="g11088"><path
         id="path11092"
         style="fill:#000000;fill-opacity:1;fill-rule:evenodd;stroke:none"
         d="m 292.488,866.726 -124.711,-72 130.301,-225.68 -130.219,-225.547 124.707,-72 88.653,153.547 88.008,-152.434 124.707,72 -129.579,224.434 129.657,224.566 -124.707,72 -88.086,-152.566 z" /><path
         id="path11094"
         style="fill:#ffffff;fill-opacity:1;fill-rule:evenodd;stroke:none"
         d="M 289.066,870.503 166.355,799.659 299.461,569.108 163.984,334.456 286.691,263.612 381.27,427.421 475.211,264.706 597.922,335.55 463.074,569.112 597.184,801.397 474.473,872.237 381.27,710.808 289.066,870.507 Z" /><path
         id="path11096"
         style="fill:#c1121c;fill-opacity:1;fill-rule:evenodd;stroke:none"
         d="m 588.801,65.499 124.711,72 -120,207.848 -124.551,-72.278 z" /><path
         id="path11098"
         style="fill:#c1121c;fill-opacity:1;fill-rule:evenodd;stroke:none"
         d="m 293.59,273.265 -124.711,72 -120,-207.844 124.711,-72 z" /><path
         id="path11100"
         style="fill:#c1121c;fill-opacity:1;fill-rule:evenodd;stroke:none"
         d="m 168.797,792.96 124.715,72 -120.004,207.848 -124.551,-72.278 z" /><path
         id="path11102"
         style="fill:#c1121c;fill-opacity:1;fill-rule:evenodd;stroke:none"
         d="m 713.59,1000.726 -124.707,72 -120.004,-207.844 124.711,-72 c 41.738,72.305 84.277,145.965 120,207.844 z" /></g></g></svg>
